<?xml version="1.0" encoding="UTF-8"?>
<svg id="Layer_2" data-name="Layer 2" xmlns="http://www.w3.org/2000/svg" viewBox="0 0 146.12 150">
  <defs>
    <style>
      .cls-1 {
        fill: #edf4f4;
      }
    </style>
  </defs>
  <g id="uuid-92bbdaec-c53d-4c5f-9137-f80f07edccfa">
    <path class="cls-1" d="M146.11,85.04c-.31.48-.21,1.64-.44,1.69,0-.45.14-1.37.19-2.1.04-.73.04-1.24-.14-.88.09-.87.45-2.16.32-3.37-.1-.41-.2-.49-.24-.67.1-1.56.16-3.13.16-4.71,0-4.13-.34-8.19-.99-12.14.07.02.14-.05.28.13-.18.66.34,1.14.27,1.77.13-.36-.03-.65.1-1.01-.28-.45-.29-.96-.32-1.47.07.1.19.05.11-.17-.21-.18-.25-1.63-.24-2.36-.15-.36-.18,0-.35-.46.03-.6-.13-1.69-.37-1.75-.16.39.29.57.22.93-.16-.04-.11,1.08-.33.68-.09-.51.07-.2.09-.75-.22-.36-.14-.82-.29-1.2-.22-.57-.09.39-.31-.18.21-.12.09-1-.05-1.43.19-.13.22-.21.28-.55-.29-.71-.33-1.54-.72-2.22-.08.17.22.85-.02.6-.11-.82-.37-.71-.45-1.59-.16-.04-.66-1.18-.72-1.76-.31-.47-.21.31-.58-.33.21-.18-.21-.95-.02-1.19-.22-.19-.17-.52-.34-.73,0,.22.02.53-.16.23.02-.26-.11-.45-.11-.7-.21-.3-.22-.1-.3-.05-.04-.11-.09-.21-.13-.31-.04-.49-.33-.86-.42-1.33.28.41.51.85.74,1.29-.21-.96-.86-1.68-1.08-2.64.53.99,1.16,1.93,1.52,3.03-.14-.15-.31-.39-.25-.02.33.39.25.13.52.65.08-.08.07-.45.14-.53-.72-.98-1.37-2.2-1.36-3.14,0,.33-.41-.36-.32-.61-.33-.46-.09.38-.31.18-.07-.38-.33-.65-.44-1,.16.13.56,1.02.45.36.02-.33-.43-.37-.41-.7.09-.41.1-.28-.13-1.04.32.45.27.09.32-.04-.39-.38-.17-.74-.22-1-.35-.36-.04.59-.37.25-.16-.6-.47-1.11-.76-1.62.08.39.27.65,0,.5-.26-.52-.27-.2-.59-.58.2-.16-.32-.74-.67-1.01-.17-.59-.35-.99-.14-1.07-.46-.52-.55-.37-.63-.21-.06-.61-.76-1.33-.59-1.59-.18-.21-.51-.29-.57-.58.38-.36,1.39,1.91,1.74,1.74-.39-.56-.8-1.1-1.2-1.64.53.06.15-.88.47-1.09-.6-.39-1.05-1.81-1.85-2.94.24.56.21.65.51,1.38-.9-.86-1.74-1.74-2.28-2.91-1.03-.64-1.43-1.92-2.49-2.51-.06-.33-.35-.42-.46-.7l-.59-.36c-.41-.67-.97-1.24-1.55-1.73-.59-.48-1.15-.9-1.53-1.31.13.05.35.21.3.06-.18-.2-.41-.75-.56-.6.29.15.13.34-.11.14-.17-.31-1.49-1.32-1.74-1.59.16.29.71.82.51.77-.48-.32-.89-.75-1.34-1.11-.05-.3.26-.24.12-.62-.3.23-.88.32-1.83-.89.35.15.13-.11.5.21-.58-.9-1.26-1.21-2.1-2.18-.66-.11-1.49-1.29-2.51-1.55-.2-.37-.6-.39-.78-.8.14.03.39.13.31,0-.78-.2-1.33-1.17-2.33-1.62.29.52,1.39.98,1.32,1.22-.41-.21-1.18-.79-1.82-1.19-.64-.39-1.12-.64-.87-.29-.75-.51-1.75-1.46-2.93-1.92-.66-.16-.58.04-1.16-.32-.01,0-.01.01-.02.02C97.56,3.71,84.68,0,70.95,0,68.14,0,65.36.16,62.63.46c0-.04.04-.09.13-.15.62.2,1.11-.28,1.71-.18-.34-.14-.62,0-.97-.14-.44.25-.93.23-1.43.24.1-.06.06-.18-.16-.11-.18.19-1.57.17-2.27.12-.35.13,0,.17-.46.32-.58-.05-1.62.05-1.69.27.37.18.56-.25.9-.17-.04.13.75.15.72.27-.13.02-.27.04-.4.06-.06-.03-.09-.09-.39-.11-.35.19-.79.09-1.16.22-.35.12-.11.13-.02.17-.09.02-.17.03-.26.05-.26-.11-.92-.04-1.28.06-.12-.19-.19-.22-.51-.3-.7.25-1.49.25-2.15.59.16.09.82-.17.57.04-.79.07-.69.32-1.54.36-.04.15-1.16.58-1.72.62-.22.13-.16.19-.11.24-.34.1-.68.21-1.02.31-.15.02-.28.02-.35-.04-.19.21-.5.14-.72.29.07,0,.15,0,.21.01-.47.15-.93.31-1.4.47.11-.05.22-.1.33-.15-.58.1-1.08.36-1.59.59-.18.07-.36.14-.54.2-.15.05-.29.1-.45.13.97-.46,1.9-1.03,2.97-1.32-.15.12-.39.28-.03.23.38-.3.14-.23.64-.47-.08-.08-.43-.09-.5-.16-.97.64-2.17,1.21-3.07,1.16.31.01-.36.38-.59.28-.45.3.36.1.16.3-.37.05-.63.29-.98.38.14-.15,1-.49.37-.42-.32-.03-.38.39-.69.36-.39-.1-.27-.11-1,.07.45-.28.1-.25-.03-.31-.38.35-.71.13-.96.17-.36.32.56.06.22.37-.58.13-1.09.4-1.59.66.37-.06.64-.23.47.02-.51.22-.21.25-.58.54-.15-.2-.73.27-1,.6-.57.14-.97.29-1.03.09-.52.42-.38.51-.23.59-.59.03-1.31.67-1.55.5-.21.16-.3.48-.58.52-.32-.38,1.89-1.25,1.74-1.58-.55.35-1.09.72-1.63,1.08.08-.51-.84-.19-1.02-.5-.4.55-1.78.92-2.9,1.64.55-.21.63-.17,1.35-.43-.86.82-1.74,1.59-2.89,2.05-.66.96-1.9,1.29-2.52,2.27-.32.04-.42.32-.69.41l-.37.55c-.66.36-1.23.88-1.73,1.4-.49.54-.91,1.06-1.32,1.4.06-.12.21-.33.07-.28-.2.17-.73.36-.6.51.16-.27.33-.11.13.11-.17.08-.58.51-.94.91-.5.43-.99.87-1.47,1.32-.04,0-.08,0-.14.01.02.02.03.05.04.07-6.09,5.62-11.26,12.24-15.23,19.59.07-.07.13-.15.16-.26.13.02.18.3.03.61-.17-.4-.4.16-.76.78,0-.02,0-.05.01-.07-.12.22-.23.45-.35.67.09.14.17.29.22.54-.13.25-.29.5-.53.72,0-.25-.06-.33-.18-.27-.48.98-.94,1.98-1.37,2.98.03.05.06.08.05.23-.33.15-.29.49-.55.94-.08.18-.15.37-.22.55,0,.02,0,.04-.02.06.32-.43,1.04-1.73,1.17-1.31-.55,1.18-1.13,1.63-1.37,2.71-.01.42.36-.37.29.2-.18.73-.65,1.4-.69,2.15.23-.33.44-.63.47-.34-.04.6-.55,1.13-.4,1.76-.11.16-.13,0-.27.24.04.81-.16,1.57-.47,2.33.14.76-.19,1.47-.12,2.22.6-1.59,1.2-3.14,1.72-4.71.63-1.53,1.21-3.09,2.16-4.52.21-1.03.79-1.97,1.49-2.85.13-.91.91-2.39,1.59-2.63-.51.68-1.18,1.33-1.38,2.13.39-.55.81-1.14,1.2-1.69.41-.55.76-1.12.98-1.73.09.34.65-.54.86-.98-.31.23-.93,1.08-1.04.91.58-.93,1.13-.93,1.86-1.89.06-.28-.08-.19-.03-.45.3-.42,1.07-1.32.65-1.19.11-.1.15-.23.24-.34.13.08.59-.34.73-.26-.05.17-.17.31-.28.46-.27.29-.2-.04-.53.35.1.38-.48.48-.5.81.49-.25.38-.44.9-.93.03,0,.03.05.04.08-.36.6-.71,1.22-1.06,1.83-.23.26-.4.52-.44.76-.12.22-.23.44-.34.66-.12.18-.24.37-.34.56-.04-.11-.08-.2-.17-.2-.07.35-.16.7-.38,1-2.26,3.05-3.98,7.16-5.05,10.22.73-.92.86-1.26,1.34-1.94-.28.81-.58,1.62-.92,2.42-.02.31.18.66,0,.95-.41.15-.25,1.36-.76,1.92.09.42-.16.66-.21,1.33.24-.33.18-.7.43-1.03.02.08.04.14.06.19-1.47,5.7-2.26,11.67-2.26,17.83,0,12.88,3.45,24.96,9.45,35.37-.11-.15-.21-.31-.32-.52.18.71.29.84,0,.85.23.16.16.56.26.82.33.36.56.81.83,1.23.05-.25-.48-.84-.18-.72.13.65.91.87.71,1.33.73.63,1.03,1.11,1.82,1.96.08.25.11.42.06.49.14.11.29.22.32.43.38.39.11-.11.13-.21.18.25.35.5.54.75,0,.08-.01.15-.07.18.2.18.25.16.31.15.51.69,1.04,1.37,1.58,2.04,0,.02.01.04.03.06.04.04.06.05.09.09.12.15.23.3.35.45-.04,0-.09-.02-.17-.05.14.21.34.36.54.51.26.32.54.62.81.93.13.17.27.33.41.48.72.83,1.46,1.64,2.22,2.43.09.23.08.36-.17.24-.14-.33.04-.31-.32-.67-.49-.35.11.39-.38.04-1.44-1.48-2.86-2.94-4.32-4.44.09.48.48.67.67,1.06-.06.28-.49-.33-.32.14.17.1.24.09.31.07.43.77.42.93.88,1.45-.53-.71.05-.24-.1-.7-.2-.12-.44-.19-.56-.4.12-.06-.08-.51.27-.29-.27.31.45.47.77,1.16-.4-.22.13.61.23.76.84.82,2.86,3.36,3.67,3.65.08.23-.45-.1-.11.37.81.21.93.41,1.64.98-.46-.49-.18-.58-.68-.9.07.15.13.29-.12.16-.14-.24-.58-.75-.5-.92.31.44,1.84,1.45,1.64,2.11.41.28.73.68,1.16.94-.15-.44-.83-.92-.4-.85.46.19.6.87,1.06,1.08-.48.2,1.32,1.29,1.33,1.67.21-.07-.08-.22.02-.29.37.16.93.56.82.74.54.11.54.47.88.36.43.42.86.84.67,1,.52.46.16-.28.67.18-.13.12.03.41.8.79.22.05-.17-.31,0-.29.45.31.11.22.22.45.24.04.4.21.63.25.26-.12-.76-.52-.45-.6.68.32,1.31,1.01.94,1.12.46,0,1.35.26,1.19.64.47.29.23,0,.45,0,1.4,1.08,2.29,1.31,3.67,2.36.52.16.26-.11.48-.12.79.57,1.14,1.09,1.65.96.44.45,1,.54,1.15.78-.1-.12.1-.1.31-.07.22.31,2.13,1.52,2.19,1.09.59.49,1.48,1.02,1.73,1.31.97-.13,3.52,1.4,2.89.66.67.1.44.46,1.15.43.42-.05-.91-.25-.48-.36.6.1,1.87.45,1.63.77-.26-.14-1.18-.41-1.05-.23.96.23,2.14.71,2.76.6.57.25-.35.11.22.36.72-.04.61.16,1.19.26-.36.02-.68.06-.7.17-.51-.25-1.03-.45-1.59-.33.46.28.99.12,1.44.44.75.05.72-.36,1.37-.04.4.24.07.29.48.53l.27-.03c.08.05.17.09.26.06-.42-.25-.76-.5-.6-.61.77.29.3-.04.3-.22.73.09.62.34,1.28.59.84-.04,2.53.31,2.5.77.65-.09-.35-.45.04-.59.15.19.7.44.77.62.59-.02,1.16.03,1.74.33.54-.08-.63-.43.28-.45.31.16.62.34.93.48,0-.33.78-.09,1.47-.18.17.08.02.13.27.23.84-.05,2.1.04,2.56.47.12-.25,1.25-.15,1.35.08.73-.41,1.53.14,2.28-.07.06.21.19.04.55.1-.19.06-.22.13-.25.19.46.08.93.24,1.37.11-.38-.13-1.2-.03-.84-.3,1.01.15,1.95-.26,2.94-.27.05,0,.1,0,.15,0,.49.06.71.17.57.36-1,.27-.55-.32-1.37-.14.64.17.15.38.35.57.2-.32.98-.25,1.58-.36-.24-.15-.56-.29-.14-.46.04,0,.08,0,.12,0,.24.07.2.3.65.19-.09-.07-.15-.13-.17-.2.17,0,.35,0,.52-.01.42.02.83.03,1.24,0,.04-.04.1-.07.16-.09.28-.02.56-.04.83-.06-.41.26-.28.6.56.36-.15-.05-.43-.09-.31-.17,1.02.08,2.01-.02,2.99-.16-.75-.24-1.72.04-2.9-.05.65-.05,1.31-.11,1.96-.18.04.02.07.04.07.06.3-.07.58-.24.95-.09.05-.05.1-.09.15-.12.47-.06.95-.11,1.42-.18.18,0,.37,0,.56-.02-.05-.02-.06-.04-.06-.06,1.43-.22,2.84-.5,4.24-.81-.05.04-.12.09-.2.14l.74.07c.35-.2.06-.24.07-.35.64-.15,1.28-.28,1.91-.44-.18.18-.81.38-1.11.42.54.15,1.22-.43,1.38-.15.22-.18.15-.27.07-.37.98-.26,1.96-.53,2.92-.83.04.04.07.09.06.17-.67.04-1.28.2-1.88.37.12.21.79-.23.63.11.94-.41,2.7-.75,3.18-1.11-.15.1-.33.14-.51.18.2-.22.6-.34.44-.36.55-.19,1.1-.37,1.65-.57,0,0,0,0,0,.01-.41.09-.76.28-1.11.46.36.18.4-.14,1-.1-.6.3-1.28.43-1.88.73.16.01.44-.02.34.08-.47.15-.82.26-.75,0-.66.37-1.33.61-1.79.6.37.05-.34.27-.52.16-.16.12-.17.19-.18.26-.27.06-.54.1-.85.05-.52.52-1.24.54-1.94.59.26.04-.29.27-.15.34-1.15-.08-2.61.93-3.39.54-.32.31-.8.17-1.21.19-.47.21-.28.29-.56.46-.56-.29-1.9.45-2.81.49-.18-.06-.05-.16-.2-.22-.68.14-.87.19-1.74.27-.02.17.84.04.48.3-1.35-.55-3.45.19-4.66.19.06-.12.19-.24-.19-.33-.47.17-1,.03-1.48.11.35.12.61.23.6.37-2.49.27-5.76-.3-7.78.04.32,0,.63-.04.96.11-.5.07-.15.19-.53.26-.72-.42-1.1.02-1.51-.04-.53-.16-.18-.24-.7-.41-.35.23-.65.12-1.09.18-.31-.12-.09-.17-.14-.26-.51.03-1.72-.39-1.78-.15.37.08.73-.02,1.09.22-1.16-.07-.38.17-.83.4-.56-.17-.4-.27-.41-.39-.78-.22-2.11-.3-3.28-.43.01-.22-.68-.36-1.06-.61-.57.01.36.34-.3.34-.52-.39-1.05-.53-1.59-.74.19-.07.55.06.42-.06-.5.03-.84-.29-.65-.39-.46.02-.88-.29-1.34-.23.24.28.52.18.78.31-.55-.01.04.2.25.25-.59-.12-1.05-.19-1.29-.08.23-.02.72.28.44.28-.96-.09-1.84-.74-2.77-.99.33.22.92.52.21.46-.33-.37-1.37-1.09-1.93-.95.14-.03.84.24.51.27-.66-.21-1.33-.37-1.97-.68-.37-.02-.53.04-.59.12-.53-.31-.28-.22-.72-.58-.24.02-.45-.11-.68-.1-.19,0,.08.17-.05.19-.78-.19-1.39-.46-1.96-.76-.56-.32-1.08-.67-1.72-.98.11.22.18.43.12.58-.46-.26-.96-.34-1.37-.75.4.04,1.23.71.94.25-.54-.32-1.15-.38-1.87-.52-.66-.59.49.04.37-.25-1.56-.52-2.94-1.49-4.03-2.22.18.29.49.27.69.49-.51-.15.02.27-.49.12-.64-.65-1.37-1.05-2.12-1.41-.74-.38-1.49-.73-2.18-1.22.34.32.3.41-.13.27-.35-.45-.73-.85-1.15-1.14.08.13,0,.15-.09.18-.98-.92-2.22-1.37-3.11-2.42.16.22.12.29-.01.3-1.58-1.4-1.47-1.08-2.86-2.02.22.31.28.49.06.43-.39-.66-.47-.19-.87-.73-.23-.32-.29-.5-.27-.61-.26-.11-.5-.25-.7-.46-.13-.22.33.06.24-.11-.87-.58-.53-.19-1.38-.95.21.07.73.41.38-.05-1.06-.44-2.77-2.35-2.47-1.35-.59-.38-.93-1.09-1.47-1.54.06.15.22.41.08.36-.48-.7-.68-.34-1.19-1-.08-.38.37-.22.3-.59-.39.04-1.47-.87-1.39-1.39-3.16-3-5.82-6.55-8.33-10.16.04.51.53.67.66,1.11-.15.1.29.59-.07.43-.06-.2-.24-.29-.32-.48-.02-.18.09-.16-.05-.52-.41-.45-.22.02-.38-.05-.18-.27-.4-.53-.56-.83.01-.14.04-.25.12-.28.52.52.67.41.94.52-.27-.26-.33-.7-.66-.91.03.25.29.86-.09.43-.44-1.02-1.47-1.63-1.7-2.81-.3-.13-.37-.25-.27-.5-.35-.21-.49-.59-.7-.9.14.51.41.93.58,1.42,1.96,3.77,4.23,7.36,6.78,10.72-.1-.21-.17-.44-.3-.61.42.19.55.67.71,1.11-.03-.02-.05-.04-.07-.06.16.21.32.42.48.63l-.04-.12.38.23c.09.21.12.35.13.46,1.65,2.06,3.4,4.03,5.26,5.9,0-.14.21-.07.12-.3-.21-.38-.13.09-.52-.25.01-.24-.55-1.06.03-.74.22.37-.09.19.22.64.25.16.19,0,.12-.16.3.15.45.5.62.82-.32-.19-.15.09-.04.3l-.42-.19c8.39,8.43,18.77,14.88,30.36,18.59-.08-.04-.15-.09-.22-.15.34-.04.67.01.97.26-.16.02-.31.01-.46-.02,4.14,1.31,8.44,2.27,12.85,2.84.07-.03.16-.05.27-.08.05.06.1.1.15.13,1.23.15,2.47.27,3.72.37,0,0,0,0,0,0,1.21-.08,1.12-.18,1.54-.35.2.16.04.34-.28.43,1.41.08,2.83.12,4.26.12,4.72,0,9.35-.44,13.83-1.28.1-.1.49-.16.82-.16,4.49-.89,8.84-2.19,13.01-3.84-.18-.02-.37-.03-.73.03.21-.3.58-.32.85-.51.39-.07.05.54.67.04.15-.03.11.03.05.08h.03c6.53-2.7,12.59-6.29,18.04-10.62-.54.53-.1.33-.27.69-.64.15-.82.81-1.39,1.03.37-.05.54-.32.91-.38.25-.44.69-.68,1.11-.94-.05.11.04.19.2.02.06-.26,1.28-.95,1.91-1.27.24-.29-.08-.15.24-.51.53-.25,1.38-.88,1.33-1.11-.41.04-.36.5-.7.61-.04-.15-.97.4-.73.03.4-.31.2-.03.68-.26.21-.35.63-.49.9-.79.38-.45-.38.1,0-.35.19.12.89-.38,1.2-.7.2.1.28.09.6,0,.48-.57,1.16-.98,1.57-1.62-.18,0-.62.57-.52.26.65-.46.44-.63,1.15-1.1-.04-.15.71-1.1,1.18-1.42.26-.48-.36-.03.02-.64.24.1.72-.61,1.01-.56.06-.28.36-.38.47-.62-.19.1-.45.26-.27-.03.23-.11.34-.3.55-.42.22-.42-.19-.12-.11-.39.59-.23.75-.75,1.18-1.1-.22.43-.49.82-.77,1.21.73-.62,1.05-1.5,1.77-2.13-.61.9-1.12,1.87-1.9,2.67.07-.19.19-.44-.09-.22-.18.45,0,.27-.32.74.11.03.42-.14.52-.12.51-1.06,1.26-2.17,2.06-2.58-.28.15.12-.52.37-.54.24-.49-.36.09-.29-.18.29-.23.4-.57.65-.83-.04.2-.62.94-.1.55.29-.13.13-.54.42-.67.39-.11.29-.04.83-.58-.24.48.05.27.18.26.15-.5.55-.48.75-.64.15-.46-.52.24-.38-.21.44-.41.74-.9,1.04-1.39-.3.24-.44.52-.42.23.33-.46.05-.32.23-.77.23.1.49-.61.56-1.03.43-.42.69-.75.85-.61.23-.63.07-.64-.11-.63.49-.33.79-1.26,1.09-1.23.1-.25.01-.57.24-.75.47.16-1,2.06-.7,2.27.3-.59.57-1.18.86-1.77.19.48.83-.27,1.14-.09.07-.69,1.07-1.72,1.67-2.92-.37.46-.46.48-.95,1.06.33-1.15.69-2.28,1.45-3.27.08-1.17.99-2.09,1.02-3.26.25-.2.2-.49.38-.71l.04-.67c.38-.65.62-1.39.78-2.11.15-.72.25-1.39.43-1.9.01.14-.01.4.09.28.09-.25.45-.69.26-.75,0,.31-.23.27-.17-.03.19-.28.45-1.87.56-2.21-.17.27-.37.98-.43.78.05-.56.24-1.1.34-1.65.23-.18.33.11.59-.18-.33-.15-.67-.61-.07-1.97.03.37.15.06.05.53.51-.9.46-1.63.91-2.78-.21-.61.43-1.86.18-2.85.22-.34.07-.69.33-1.03.04.13.06.39.14.26-.18-.76.4-1.67.33-2.73h0ZM4.24,41.46c.09-.64.22-.45.58-.84-.02.4-.44.9-.58.84ZM19.23,123.54c-.22-.05-.71-.81-.45-.73.39.08.5.69.45.73ZM4.53,109.78c.33.28,1.2,1.55,1.45,2.48-.58-.75-.98-1.65-1.45-2.48ZM19.53,127.67c.59.22,1.05.62,1.38,1.21-.53-.3-1.02-.67-1.38-1.21ZM26.63,133.19c-.05.06-.21.04-.46-.04-.26-.5-.76-.54-1.02-1.02.6.17,1.02.65,1.48,1.06ZM25.36,134.01c.51.16.87.58,1.34.81-.06.18-1.09-.37-1.34-.81ZM34.88,138.56c-.22-.33-.55-.37-.77-.7.43.09,1.52.86.77.7ZM41.85,141.86c.34,0,.65.07.91.34-.34,0-.65-.07-.91-.34ZM45.05,142.8c-.06-.21.5.12.31-.09.56.22,1.06.74,1.7.64-.2.25-1.48-.12-2-.55ZM58.38,145.95c.69.07,1.37.16,2.05.48-.68-.08-1.37-.14-2.05-.48ZM66.61,146.54c-.22-.11-.09-.2.25-.28.51.16,1.01.12,1.53.31-.57.27-1.19-.07-1.78-.03ZM87.72,147.34l.36-.24.62.05c-.27.22-.62.25-.99.19ZM136.93,38.24c.25.59.62,1.11.63,1.85.08-.14.09-.41.27-.35.2.3.36.63.49.98-.01.21.05.56-.08.54.29.52.07.45.45.99-.57-.29-1.31-2.1-1.55-2.68.01.11,0,.17,0,.2-.14-.26-.28-.53-.43-.79.04-.02.1,0,.19.1-.4-.74-1.29-1.88-1.3-2.38.56.72.78,1.21,1.32,1.54h0ZM135.08,33.15c.4.51.1.76-.21.17-.12-.36.27.09.21-.17ZM135.38,36.04c.19.56-.31-.11-.4-.04-.05-.09-.11-.17-.16-.26l-.02-.1c.43.51.25-.2.58.39h0ZM133.19,31.55c-.08-.35-.47-.43-.51-.81.21.09.48.66.29.1.3.34.59.68.85,1.06.15.06-.1-.21-.13-.43.32.14.46.44.63.71-.28,0,.04.21.2.73-.07.04-.2-.04-.39-.2.08.23.33.31.4.55.09,0,.02-.24.24-.03,0,.69.21,1.38-.62.52-.03-.19.3.21.24-.03-.36-.57-.55-.77-.93-.98-.18-.55-.74-.78-.85-1.41-.22-.02-.59-.75-.55-.41-.48-.57.03-.36.15-.32.35.29.53.73.98.94h0ZM132.08,30.19c.08.3-.18.1-.46-.12-.15-.43.31-.11.46.12ZM121.79,19.37c.14.5-1.67-1.03-1.59-1.22.64.24.96.96,1.59,1.22ZM118.86,16.78c.25.46.18.33.56.86-.23-.03-.37-.2-.56-.3-.08-.07-.16-.14-.24-.2-.24-.44-.68-.57-.95-.97.42.15.72.52,1.19.61h0ZM115.19,14.35c-.48-.13-.84-.49-1.18-.9.41.27.84.5,1.18.9ZM111.04,11.35c.33.31-.05.16-.08.24-.09-.06-.19-.12-.28-.18-.06-.13.04-.21.36-.07ZM110.61,11.34s-.06-.02-.08-.02c-.26-.16-.51-.32-.77-.48.22.04.72.3.86.5h0ZM57.82,1.05c.16.01.23.03.28.06-.28.05-.56.1-.84.16.18-.09.39-.11.57-.22h0ZM55.88,1.53c-.4.08-.79.17-1.19.26-.02-.13.94-.35,1.19-.26ZM41.13,5.95c.15.02.39,0,.47.04-.44.19-.87.38-1.3.57-.09-.04-.16-.09-.13-.19.3-.17.62-.31.96-.43ZM38.69,7.17c.44-.16.84-.39,1.32-.48-.5.23-1.01.46-1.5.69.06-.07.13-.13.18-.21h0ZM33.89,8.92c-.35.1.1-.25-.16-.21.5-.36.73-.06.16.21ZM31.17,11.35c.29-.32.72-.48.94-.89-.34.07-.43.43-.8.45.09-.2.66-.43.11-.27.34-.27.68-.53,1.06-.76.06-.14-.21.09-.42.11.15-.3.44-.42.71-.57-.01.26.2-.03.7-.15.03.06-.05.19-.21.36.22-.07.31-.3.54-.36,0-.08-.23-.03-.02-.24.63.03,1.26-.12.55.53-.04.02-.09.05-.13.07-.03-.05.22-.26.03-.22-.5.28-.71.45-.9.73-.49.28-.98.57-1.46.86,0,0,0,0,0,0,0,0,0,0,0,0-.26.16-.51.33-.77.49.02-.06.04-.11.05-.14ZM30.76,11.46c.21-.05.16.07.03.24-.11.07-.22.14-.33.21-.11-.05.12-.34.3-.45h0ZM10.86,36.65c.42-.89,1.01-1.42,1.52-1.84-.16.24-.31.48-.46.72-.32.33-.66.72-1.06,1.12ZM6.52,45.56s-.02.04-.03.06c0-.01,0-.02,0-.03.01,0,.02-.02.03-.03h0ZM11.54,112.18c-.07-.34-.29-.57-.41-.88,0,0,.01,0,.02,0,.19.3.38.6.58.9-.07-.04-.13-.06-.19-.02ZM12.36,113.24c-.03-.06-.06-.13-.1-.2.05.07.09.14.13.21-.01,0-.02,0-.04,0ZM20.18,124.3c-.37-.51.36.08,0-.43.24.13.4.36.51.66,0,0-.5-.23-.5-.23ZM20.66,123.68c.17.08.17.03.13-.06.09.1.18.2.28.29-.01.11,0,.24.1.42-.21-.16-.37-.39-.51-.65ZM21.27,124.12c.14.14.29.28.43.42-.18-.09-.33-.22-.43-.42ZM22.76,125.79c.05-.09,0-.2-.09-.34.63.6,1.27,1.19,1.92,1.76-.6-.04-1.11-1.02-1.83-1.43h0ZM24.68,127.3c.21.18.42.36.63.55.11.13.23.27.43.45-.41-.18-1.05-.69-1.06-1h0ZM27.59,129.88c-.32-.34-.81-.7-1.2-1.05-.06-.06-.12-.13-.18-.19.55.46,1.11.89,1.68,1.33l-.3-.09h0ZM28.37,131.21c.06-.18.93.53,1.29.73-.08.23-.97-.46-1.29-.73ZM43.46,139.63c.46.02.8.49,1.26.49.01.26-.97-.17-1.26-.49ZM44.72,87.12c-4.73,11.95-11.16,27.19-9.95,44.28C16.22,119.46,3.92,98.61,3.92,74.88,3.92,39.66,30.97,10.8,65.39,7.97c10.07,31.94-8.78,49.11-20.67,79.15h0ZM50.48,142.03c1.03.21,1.56.34,2.74.68-.93-.07-1.86-.27-2.74-.68ZM59.01,144.07c-.34-.24-.71-.08-1.05-.37.11.03.19.03.28.04.41.08.82.15,1.22.22-.07.05-.23.09-.45.11h0ZM93.11,141.75c-.13.02-.21.02-.26.01.14-.04.27-.09.4-.14-.03.04-.07.08-.14.12h0ZM93.87,141.48c-.1.01-.18.02-.23.02.14-.04.27-.09.41-.14.05.05.08.1-.17.12h0ZM99.03,139.78c-.87.37-1.76.7-2.64,1.03.26-.17.5-.4.8-.49.02-.04,0-.07-.03-.09.28-.11.55-.21.82-.32.61-.04.97-.5,1.59-.54.1-.08.16-.14.2-.2.09-.04.18-.08.27-.12.28-.01.47-.15.67-.3.22-.1.44-.2.66-.3.05,0,.09,0,.15,0-.8.49-1.62.95-2.48,1.33h0ZM110.95,138.33c-.06-.05-.27-.06-.45.12.19-.29,1.4-1.25,2.23-1.53-.52.55-1.28.83-1.77,1.41h0ZM109.97,138.02c-.08-.25,1.06-.9,1.53-1.23.14.31-1.11.85-1.53,1.23ZM117.3,133.35c.25-.28.58-.48.95-.65-.21.37-.85.75-.95.65ZM117.8,133.68c-.08-.03-.1-.06-.09-.09.25-.2.48-.4.73-.6.05,0,.11.02.09.13-.34.08-.42.45-.72.57h0ZM121.16,131.26c-.32.16-.31.06-.47.1.17-.32.52-.47.88-.61-.11.2-.3.32-.41.52ZM120.65,129.59c.25-.28.5-.55.91-.69-.22.35-.79.79-.91.69ZM121.82,129.13c.12-.12.23-.24.35-.35.16-.07.32-.14.28-.04-.3.26-.46.33-.63.4h0ZM122.51,129.82c.31-.41.8-.41.73-.75.84-.4-.59.99-.73.75ZM125.17,127.1c.46-.43.12-.31.2-.55.04-.04.08-.08.12-.12.27-.11.36-.37.52-.57.02-.02.03-.04.05-.05.06-.06.13-.12.22-.15-.5.59-.21,1.01-1.1,1.45h0ZM127.24,122.9c-.15-.06.32-.7.63-.77-.2.27-.41.52-.63.77ZM127.97,123.22c-.01-.07,0-.17.05-.33l.55-.34c-.11.23-.35.48-.6.67ZM130.35,120.03c-.11.07-.15.14-.17.22-.1.07-.19.1-.25.22-.12.07-.03-.13,0-.27.01-.02.03-.03.04-.05l.43-.29c-.02.06-.04.12-.06.16ZM130.64,119.7l-.08.22s-.01,0-.02,0c-.04-.07-.01-.16.06-.28.03,0,.05.02.06.05,0,0-.01,0-.02,0ZM131.05,119.8s0,0,0,0c.02-.02.03-.05.05-.07-.01.03-.03.05-.04.08ZM131.15,119.26c-.1.08-.21.15-.38.22,0-.04.02-.08.04-.11.14-.18.31-.36.46-.55.08-.05.17-.11.25-.16-.12.2-.32.48-.36.6h0ZM134.61,116.12c-.39.48-.67,1.03-1.29,1.38.16,0,.39-.1.42.08-.17.3-.37.59-.61.86-.18.08-.45.29-.49.17-.31.48-.35.26-.64.83-.01-.62,1.2-2.07,1.59-2.54-.33.22-.27,0,.19-.63.12-.05.19-.02.12.21.45-.68,1.02-1.96,1.44-2.18-.36.81-.68,1.22-.71,1.82h0ZM132.11,116.4c.09-.42.43-.71.75-1.02-.12.4-.36.75-.75,1.02ZM133.11,116.9c.17-.25.34-.49.51-.75-.09.26-.27.47-.38.72-.07.04-.1.04-.13.02h0ZM134.34,115.01c.12-.19.24-.38.36-.56.01.07.05.09,0,.27l-.36.3ZM135.79,113.8c-.43.46.02-.46-.18-.36-.18.25-.24.55-.45.79-.29.16.16-.47.15-.64l.55-.46c-.24.6.28.13-.07.67ZM136.5,109.97c.04-.19.21-.48.4-.72-.13.24-.26.48-.4.72ZM70.95,142.03c-8.39,0-16.41-1.56-23.81-4.38,1.69-4.06,3.66-7.69,5.89-10.71,2.9-3.72,6.53-6.69,11.11-8.17,1.91-.62,4.02-1.11,6.3-1.24.98,0,2.04.03,3.14.06,0,0,0,0,.01,0h0s.02,0,.03,0c4.34.67,7.99.69,11.31.48h0c5.58-.28,10.46-1.64,12.11-4.86,2.35-4.58,1.27-8.25.39-10.92-.33-.99-.47-1.85-.52-2.57-.04-.62.5-1.42,1.23-2.28.93-1.1,1.83-2.33,1.89-3.68.11-2.59-2.5-4.49-4.23-5.16-.07-.03-.08-.13,0-.17,3.97-2.44,4.4-5.14,4.51-6.23.13-1.2-.08-2.27-.81-2.93-1.26-1.13-2.54-3.8-1.89-4.93.15-.26.66-.73,1.41-1.28,2.08-1.54,5.08-3.85,5.32-6.65.11-1.26-.4-2.49-1.51-3.65-.73-.76-1.59-1.55-2.5-2.39-1.25-1.15-2.53-2.47-3.87-3.96-2.93-3.25-4.7-6.94-6.25-10.18,2.17-1.28,4.61-3.31,4.91-5.26-.69,1.05-1.88,1.97-3.18,2.69.91-.81,1.64-1.7,1.73-2.59-.49.7-2.22,2.27-4.06,3.35-.34-1.81-.2-4.21.06-6.91.36-3.82.63-8.14-.31-12.13-1.55-6.54-4.2-12.14-7.88-16.85,32.01,5.06,56.5,32.82,56.5,66.32,0,37.09-30.01,67.15-67.03,67.15h0ZM137.88,112.13c.25-.27.04.27.24.1-.25.58-.6.43-.24-.1ZM138.61,110.59c.01.15.14-.18.31-.31.02.34-.17.6-.32.86-.13-.23-.16.13-.53.5-.06-.04-.06-.19,0-.42-.16.17-.11.42-.29.59.04.07.22-.09.13.2-.59.31-1.08.81-.72-.29.14-.11-.04.35.13.2.33-.57.41-.82.41-1.23.39-.4.33-.99.82-1.36-.08-.19.37-.84.1-.66.27-.67.32-.14.35-.02-.09.43-.38.79-.36,1.26.26-.23.16-.59.46-.81.02.22-.35.71.04.29-.15.41-.32.81-.52,1.21h0ZM139.29,108.33c-.22.21-.17-.11-.11-.45.3-.32.23.22.11.45ZM139.94,104.73c-.18.26-.31.6-.43.64.18-.4.36-.8.53-1.21-.1.23-.16.44-.1.57h0ZM142.07,51.19c.17.2.31.44.3.93-.1-.31-.2-.62-.3-.93ZM143.58,55.95c-.23-.48.01-.93-.33-1.03.04-.96.62,1.02.33,1.03ZM143.97,57.25c.13.2.15.43.27.63,0,.36-.09.31-.14.48-.01-.02-.02-.04-.03-.06-.04-.19-.09-.37-.13-.56,0-.16.01-.32.03-.48h0ZM143.85,94.63c-.36.35.12-1.89.32-1.91.08.66-.39,1.25-.32,1.91ZM144.26,91.82c-.09-.26.06-.51-.01-.77.39-.45.23-.93.48-1.39.06.43-.12.85.02,1.29-.28.42-.2.31-.48.87h0ZM145.72,80.74c.01.21,0,.46-.05.62.02-.21.03-.41.05-.62ZM145.15,86.72c-.11-.47.04-.94.24-1.41-.05.47-.04.94-.24,1.41ZM145.62,81.87c.01-.13.03-.25.04-.38.07-.04.15.05.17.32-.1.37-.15.13-.21.06Z"/>
  </g>
</svg>